<svg width="317" height="92" viewBox="0 0 317 92" fill="none" xmlns="http://www.w3.org/2000/svg">
<rect width="317" height="92" fill="#F5F5F5"/>
<rect width="317" height="92" fill="#4C7EAC"/>
<path d="M26.0341 60V25.0909H33.4148V39.4943H48.3977V25.0909H55.7614V60H48.3977V45.5795H33.4148V60H26.0341ZM61.8466 25.0909H70.9489L80.5625 48.5455H80.9716L90.5852 25.0909H99.6875V60H92.5284V37.2784H92.2386L83.2045 59.8295H78.3295L69.2955 37.1932H69.0057V60H61.8466V25.0909ZM137.848 42.5455C137.848 46.3523 137.126 49.5909 135.683 52.2614C134.251 54.9318 132.297 56.9716 129.82 58.3807C127.354 59.7784 124.581 60.4773 121.501 60.4773C118.399 60.4773 115.615 59.7727 113.149 58.3636C110.683 56.9545 108.734 54.9148 107.303 52.2443C105.871 49.5739 105.155 46.3409 105.155 42.5455C105.155 38.7386 105.871 35.5 107.303 32.8295C108.734 30.1591 110.683 28.125 113.149 26.7273C115.615 25.3182 118.399 24.6136 121.501 24.6136C124.581 24.6136 127.354 25.3182 129.82 26.7273C132.297 28.125 134.251 30.1591 135.683 32.8295C137.126 35.5 137.848 38.7386 137.848 42.5455ZM130.365 42.5455C130.365 40.0795 129.996 38 129.257 36.3068C128.53 34.6136 127.501 33.3295 126.172 32.4545C124.842 31.5795 123.286 31.142 121.501 31.142C119.717 31.142 118.161 31.5795 116.831 32.4545C115.501 33.3295 114.467 34.6136 113.729 36.3068C113.001 38 112.638 40.0795 112.638 42.5455C112.638 45.0114 113.001 47.0909 113.729 48.7841C114.467 50.4773 115.501 51.7614 116.831 52.6364C118.161 53.5114 119.717 53.9489 121.501 53.9489C123.286 53.9489 124.842 53.5114 126.172 52.6364C127.501 51.7614 128.53 50.4773 129.257 48.7841C129.996 47.0909 130.365 45.0114 130.365 42.5455Z" fill="#DB7D68"/>
<path d="M177.972 35.1307C177.835 33.7557 177.25 32.6875 176.216 31.9261C175.182 31.1648 173.778 30.7841 172.006 30.7841C170.801 30.7841 169.784 30.9545 168.955 31.2955C168.125 31.625 167.489 32.0852 167.045 32.6761C166.614 33.267 166.398 33.9375 166.398 34.6875C166.375 35.3125 166.506 35.858 166.79 36.3239C167.085 36.7898 167.489 37.1932 168 37.5341C168.511 37.8636 169.102 38.1534 169.773 38.4034C170.443 38.642 171.159 38.8466 171.92 39.017L175.057 39.767C176.58 40.108 177.977 40.5625 179.25 41.1307C180.523 41.6989 181.625 42.3977 182.557 43.2273C183.489 44.0568 184.21 45.0341 184.722 46.1591C185.244 47.2841 185.511 48.5739 185.523 50.0284C185.511 52.1648 184.966 54.017 183.886 55.5852C182.818 57.142 181.273 58.3523 179.25 59.2159C177.239 60.0682 174.813 60.4943 171.972 60.4943C169.153 60.4943 166.699 60.0625 164.608 59.1989C162.528 58.3352 160.903 57.0568 159.733 55.3636C158.574 53.6591 157.966 51.5511 157.909 49.0398H165.051C165.131 50.2102 165.466 51.1875 166.057 51.9716C166.659 52.7443 167.46 53.3295 168.46 53.7273C169.472 54.1136 170.614 54.3068 171.886 54.3068C173.136 54.3068 174.222 54.125 175.142 53.7614C176.074 53.3977 176.795 52.892 177.307 52.2443C177.818 51.5966 178.074 50.8523 178.074 50.0114C178.074 49.2273 177.841 48.5682 177.375 48.0341C176.92 47.5 176.25 47.0455 175.364 46.6705C174.489 46.2955 173.415 45.9545 172.142 45.6477L168.341 44.6932C165.398 43.9773 163.074 42.858 161.369 41.3352C159.665 39.8125 158.818 37.7614 158.83 35.1818C158.818 33.0682 159.381 31.2216 160.517 29.642C161.665 28.0625 163.239 26.8295 165.239 25.9432C167.239 25.0568 169.511 24.6136 172.057 24.6136C174.648 24.6136 176.909 25.0568 178.841 25.9432C180.784 26.8295 182.295 28.0625 183.375 29.642C184.455 31.2216 185.011 33.0511 185.045 35.1307H177.972ZM204.277 33.8182V39.2727H188.51V33.8182H204.277ZM192.089 27.5455H199.351V51.9545C199.351 52.625 199.453 53.1477 199.658 53.5227C199.862 53.8864 200.146 54.142 200.51 54.2898C200.885 54.4375 201.317 54.5114 201.805 54.5114C202.146 54.5114 202.487 54.483 202.828 54.4261C203.169 54.358 203.43 54.3068 203.612 54.2727L204.754 59.6761C204.391 59.7898 203.879 59.9205 203.22 60.0682C202.561 60.2273 201.76 60.3239 200.817 60.358C199.067 60.4261 197.533 60.1932 196.214 59.6591C194.908 59.125 193.891 58.2955 193.163 57.1705C192.436 56.0455 192.078 54.625 192.089 52.9091V27.5455ZM220.555 60.5114C217.908 60.5114 215.618 59.9489 213.686 58.8239C211.766 57.6875 210.283 56.108 209.237 54.0852C208.192 52.0511 207.669 49.6932 207.669 47.0114C207.669 44.3068 208.192 41.9432 209.237 39.9205C210.283 37.8864 211.766 36.3068 213.686 35.1818C215.618 34.0455 217.908 33.4773 220.555 33.4773C223.203 33.4773 225.487 34.0455 227.408 35.1818C229.339 36.3068 230.828 37.8864 231.874 39.9205C232.919 41.9432 233.442 44.3068 233.442 47.0114C233.442 49.6932 232.919 52.0511 231.874 54.0852C230.828 56.108 229.339 57.6875 227.408 58.8239C225.487 59.9489 223.203 60.5114 220.555 60.5114ZM220.589 54.8864C221.794 54.8864 222.8 54.5455 223.607 53.8636C224.413 53.1705 225.021 52.2273 225.43 51.0341C225.851 49.8409 226.061 48.483 226.061 46.9602C226.061 45.4375 225.851 44.0795 225.43 42.8864C225.021 41.6932 224.413 40.75 223.607 40.0568C222.8 39.3636 221.794 39.017 220.589 39.017C219.374 39.017 218.351 39.3636 217.521 40.0568C216.703 40.75 216.084 41.6932 215.663 42.8864C215.254 44.0795 215.05 45.4375 215.05 46.9602C215.05 48.483 215.254 49.8409 215.663 51.0341C216.084 52.2273 216.703 53.1705 217.521 53.8636C218.351 54.5455 219.374 54.8864 220.589 54.8864ZM238.163 60V33.8182H245.203V38.3864H245.476C245.953 36.7614 246.754 35.5341 247.879 34.7045C249.004 33.8636 250.3 33.4432 251.766 33.4432C252.129 33.4432 252.521 33.4659 252.942 33.5114C253.362 33.5568 253.732 33.6193 254.05 33.6989V40.142C253.709 40.0398 253.237 39.9489 252.635 39.8693C252.033 39.7898 251.482 39.75 250.982 39.75C249.913 39.75 248.959 39.983 248.118 40.4489C247.288 40.9034 246.629 41.5398 246.141 42.358C245.663 43.1761 245.425 44.1193 245.425 45.1875V60H238.163ZM268.517 60.5114C265.824 60.5114 263.506 59.9659 261.562 58.875C259.631 57.7727 258.142 56.2159 257.097 54.2045C256.051 52.1818 255.528 49.7898 255.528 47.0284C255.528 44.3352 256.051 41.9716 257.097 39.9375C258.142 37.9034 259.614 36.3182 261.511 35.1818C263.42 34.0455 265.659 33.4773 268.227 33.4773C269.955 33.4773 271.563 33.7557 273.051 34.3125C274.551 34.858 275.858 35.6818 276.972 36.7841C278.097 37.8864 278.972 39.2727 279.597 40.9432C280.222 42.6023 280.534 44.5455 280.534 46.7727V48.767H258.426V44.267H273.699C273.699 43.2216 273.472 42.2955 273.017 41.4886C272.563 40.6818 271.932 40.0511 271.125 39.5966C270.33 39.1307 269.403 38.8977 268.347 38.8977C267.244 38.8977 266.267 39.1534 265.415 39.6648C264.574 40.1648 263.915 40.8409 263.438 41.6932C262.96 42.5341 262.716 43.4716 262.705 44.5057V48.7841C262.705 50.0795 262.943 51.1989 263.42 52.142C263.909 53.0852 264.597 53.8125 265.483 54.3239C266.369 54.8352 267.42 55.0909 268.636 55.0909C269.443 55.0909 270.182 54.9773 270.852 54.75C271.523 54.5227 272.097 54.1818 272.574 53.7273C273.051 53.2727 273.415 52.7159 273.665 52.0568L280.381 52.5C280.04 54.1136 279.341 55.5227 278.284 56.7273C277.239 57.9205 275.886 58.8523 274.227 59.5227C272.58 60.1818 270.676 60.5114 268.517 60.5114Z" fill="black"/>
</svg>
